<?xml version="1.0" encoding="UTF-8"?><svg id="Layer_2" xmlns="http://www.w3.org/2000/svg" width="40" height="40" viewBox="0 0 40 40"><defs><style>.cls-1{fill:#fff;}</style></defs><g id="Layer_1-2"><path class="cls-1" d="M7.1,31.25c2.1-1.46667,4.18333-2.59167,6.25-3.375s4.28333-1.175,6.65-1.175,4.59167.39167,6.675,1.175,4.175,1.90833,6.275,3.375c1.46667-1.8,2.50833-3.61667,3.125-5.45s.925-3.76667.925-5.8c0-4.83333-1.625-8.875-4.875-12.125s-7.29167-4.875-12.125-4.875-8.875,1.625-12.125,4.875-4.875,7.29167-4.875,12.125c0,2.03333.31667,3.96667.95,5.8s1.68333,3.65,3.15,5.45ZM19.9905,21.5c-1.927,0-3.54883-.6615-4.8655-1.9845-1.31667-1.32267-1.975-2.94767-1.975-4.875,0-1.927.6615-3.54883,1.9845-4.8655,1.32267-1.31667,2.94767-1.975,4.875-1.975,1.927,0,3.54883.6615,4.8655,1.9845,1.31667,1.32267,1.975,2.94767,1.975,4.875,0,1.927-.6615,3.54883-1.9845,4.8655-1.32267,1.31667-2.94767,1.975-4.875,1.975ZM20.0235,40c-2.749,0-5.34017-.525-7.7735-1.575s-4.55833-2.48333-6.375-4.3-3.25-3.93783-4.3-6.3635c-1.05-2.42533-1.575-5.017-1.575-7.775,0-2.75767.525-5.34483,1.575-7.7615s2.48333-4.53333,4.3-6.35,3.93783-3.25,6.3635-4.3c2.42533-1.05,5.017-1.575,7.775-1.575,2.75767,0,5.34483.525,7.7615,1.575s4.53333,2.48333,6.35,4.3,3.25,3.93383,4.3,6.3515,1.575,5.001,1.575,7.75-.525,5.34017-1.575,7.7735-2.48333,4.55833-4.3,6.375-3.93383,3.25-6.3515,4.3-5.001,1.575-7.75,1.575ZM20,37c1.83333,0,3.625-.26667,5.375-.8s3.475-1.46667,5.175-2.8c-1.7-1.2-3.43333-2.11667-5.2-2.75-1.76667-.63333-3.55-.95-5.35-.95s-3.58333.31667-5.35.95c-1.76667.63333-3.5,1.55-5.2,2.75,1.7,1.33333,3.425,2.26667,5.175,2.8s3.54167.8,5.375.8ZM20,18.5c1.13333,0,2.05833-.35833,2.775-1.075s1.075-1.64167,1.075-2.775-.35833-2.05833-1.075-2.775-1.64167-1.075-2.775-1.075-2.05833.35833-2.775,1.075-1.075,1.64167-1.075,2.775.35833,2.05833,1.075,2.775,1.64167,1.075,2.775,1.075Z"/></g></svg>