<?xml version="1.0" encoding="UTF-8"?><svg id="Layer_2" xmlns="http://www.w3.org/2000/svg" width="716.66705" height="650.00009" viewBox="0 0 716.66705 650.00009"><defs><style>.cls-1{fill-rule:evenodd;}</style></defs><g id="Layer_1-2"><path class="cls-1" d="M90.17544.00011c.49566.00033.993.00033,1.49167.00033L626.49341.00011c14.42668-.00167,27.65331-.003,38.41336,1.44366,11.84998,1.593,24.37331,5.34134,34.67331,15.642,10.30331,10.30067,14.04997,22.825,15.64331,34.67433,1.44666,10.76033,1.44666,23.98833,1.44335,38.41533v2.98301c.00331,14.42733.00331,27.655-1.44335,38.41532-1.59334,11.84934-5.34,24.37367-15.64331,34.67434-9.78998,9.79233-21.59335,13.66299-32.91333,15.39v178.57533c0,61.26,0,109.77999-5.1033,147.75333-5.25672,39.08335-16.32671,70.71329-41.27,95.66002-24.94672,24.94329-56.57666,36.01328-95.66002,41.27-37.97334,5.1033-86.49333,5.1033-147.75333,5.1033h-37.09335c-61.25898,0-109.77999,0-147.75398-5.1033-39.08067-5.25672-70.71234-16.32671-95.65766-41.27-24.94534-24.94672-36.016-56.57666-41.27033-95.66002-5.10534-37.97334-5.105-86.49333-5.10433-147.75333v-178.57533c-11.321-1.72701-23.12233-5.59767-32.91467-15.39-10.30067-10.30067-14.049-22.825-15.642-34.67434C-.00289,120.81345-.00155,107.58578.00011,93.15878c.00033-.49601.00033-.99335.00033-1.49167C.00045,91.16845.00045,90.67111.00011,90.17544c-.00166-14.42733-.003-27.655,1.44367-38.41533,1.593-11.84933,5.34133-24.37367,15.642-34.67433C27.38644,6.78512,39.91078,3.03678,51.76011,1.44378,62.52045-.00288,75.74811-.00156,90.17544.00011ZM100.00044,183.33377v174.99966c0,63.56001.05299,108.71664,4.65867,142.97332,4.50867,33.53335,12.96433,52.8567,27.07133,66.96332,14.107,14.10669,33.42867,22.56336,66.96499,27.07004,34.25533,4.60663,79.41101,4.65997,142.97134,4.65997h33.33333c63.56001,0,108.71667-.05334,142.97332-4.65997,33.53335-4.50668,52.8567-12.96336,66.96332-27.07004,14.10669-14.10662,22.56336-33.42997,27.07004-66.96332,4.60663-34.25668,4.65997-79.41332,4.65997-142.97332v-174.99966H100.00044ZM52.44144,52.44144l.08133-.04567c.06433-.03367.175-.08767.343-.15667.726-.29867,2.338-.80866,5.55667-1.24133,7.024-.94434,16.82433-.99734,33.24466-.99734h533.33298c16.41998,0,26.22.053,33.24331.99734,3.22005.43267,4.83335.94266,5.55668,1.24133.17001.06901.28.123.34332.15667l.08335.04533.04336.08167c.03662.06433.08996.175.15666.343.29996.726.80999,2.338,1.24334,5.55666.94331,7.024.99665,16.82434.99665,33.24467s-.05334,26.22034-.99665,33.24434c-.43335,3.21867-.94337,4.83066-1.24334,5.55666-.06669.16832-.12004.27866-.15666.34332l-.04336.08135-.08335.04567c-.06332.03366-.17331.08732-.34332.15666-.72333.29867-2.33663.80833-5.55668,1.241-7.0233.94434-16.82332.99767-33.24331.99767H91.66711c-16.42033,0-26.22066-.05333-33.24466-.99767-3.21867-.43267-4.83067-.94233-5.55667-1.241-.168-.06933-.27866-.12299-.343-.15666l-.08133-.046-.04567-.08101c-.03367-.06466-.08767-.175-.15667-.34332-.29867-.726-.80866-2.338-1.24133-5.55666-.94434-7.024-.99734-16.82434-.99734-33.24434s.053-26.22067.99734-33.24467c.43267-3.21866.94266-4.83066,1.24133-5.55666.06901-.168.123-.27866.15667-.343l.04567-.08133ZM52.44144,130.89245c-.01334-.01367-.009-.01101,0,0h0ZM458.31677,273.02011c10.3,9.19332,11.19334,24.99666,1.99998,35.29666l-119.04999,133.33333c-4.74332,5.31333-11.52665,8.34999-18.64665,8.34999-7.12334,0-13.90667-3.03666-18.65002-8.34999l-47.61832-53.33334c-9.19568-10.3-8.301-26.10334,1.99833-35.29666,10.29901-9.19666,26.10302-8.30332,35.3,1.99668l28.97002,32.44667,100.4-112.44669c9.19332-10.3,24.99666-11.19334,35.29666-1.99664Z"/></g></svg>